<?xml version="1.0" encoding="utf-8"?>
<svg width="410" height="404" viewBox="0 0 410 404" fill="none" xmlns="http://www.w3.org/2000/svg" xmlns:bx="https://boxy-svg.com">
  <defs>
    <linearGradient id="color-0" bx:pinned="true">
      <stop style="stop-color: rgb(200, 200, 200);" offset="0"/>
      <stop style="stop-color: rgb(66, 66, 66);" offset="0.128"/>
      <stop style="stop-color: rgb(37, 37, 37);" offset="0.607"/>
    </linearGradient>
    <bx:grid x="0" y="0" width="13.154" height="13.154"/>
  </defs>
  <g transform="matrix(2.151385, 0, 0, 2.151385, -10.920992, -657.022217)" style="">
    <g>
      <path d="M127.265,350.749l-31.505-0.342l-0.343,35.985H59.774l-0.343,31.506l35.979,0.343v35.637l31.506,0.343 c0.19,0,0.343-0.147,0.343-0.343v-35.637h35.643l0.342-31.506l-35.979-0.343V350.749L127.265,350.749z" style="fill: rgb(0, 0, 0);"/>
      <path d="M136.354,377.305v-37.565c0-0.244-0.202-0.446-0.447-0.446H86.782c-0.251,0-0.447,0.202-0.447,0.446v37.565H48.764 c-0.251,0-0.447,0.201-0.447,0.446v49.125c0,0.245,0.202,0.447,0.447,0.447h37.564v37.57c0,0.245,0.202,0.447,0.447,0.447h49.125 c0.25,0,0.447-0.202,0.447-0.447v-37.57h37.564c0.251,0,0.447-0.202,0.447-0.447v-49.125c0-0.245-0.202-0.446-0.447-0.446H136.354 L136.354,377.305z M169.365,417.898c0,3.562-2.901,6.463-6.462,6.463h-29.517v29.517c0,3.562-2.901,6.463-6.462,6.463H95.753 c-3.562,0-6.463-2.901-6.463-6.463v-29.517H59.768c-3.562,0-6.463-2.901-6.463-6.463v-31.169c0-3.562,2.901-6.463,6.463-6.463 h29.522v-29.523c0-3.562,2.901-6.463,6.463-6.463h31.169c3.562,0,6.462,2.901,6.462,6.463v29.523h29.523 c3.562,0,6.463,2.9,6.463,6.463v31.169H169.365z" style="fill: rgb(0, 0, 0);"/>
      <path d="M 189.537 481.757 L 189.537 316.819 L 30.935 316.819 C 3.981 378.671 3.981 440.523 34.907 481.757 L 189.537 481.757 Z M 180.485 426.876 C 180.485 430.499 177.541 433.443 173.918 433.443 L 142.474 433.443 L 142.474 464.893 C 142.474 468.516 139.53 471.46 135.907 471.46 L 86.782 471.46 C 83.159 471.46 80.215 468.516 80.215 464.893 L 80.215 433.443 L 48.764 433.443 C 45.141 433.443 42.197 430.499 42.197 426.876 L 42.197 377.751 C 42.197 374.128 45.141 371.185 48.764 371.185 L 80.208 371.185 L 80.208 339.74 C 80.208 336.117 83.152 333.174 86.775 333.174 L 135.9 333.174 C 139.523 333.174 142.466 336.117 142.466 339.74 L 142.466 371.185 L 173.911 371.185 C 177.534 371.185 180.478 374.128 180.478 377.751 L 180.478 426.876 L 180.485 426.876 Z" style="fill: rgb(0, 0, 0);"/>
    </g>
  </g>
</svg>